<svg height="512" viewBox="0 0 64 64" width="512" xmlns="http://www.w3.org/2000/svg"><g id="postman-mail-postal"><path d="m17 31h6v8h-6z" fill="#ffc477"/><path d="m10 13h20a0 0 0 0 1 0 0v10a10 10 0 0 1 -10 10 10 10 0 0 1 -10-10v-10a0 0 0 0 1 0 0z" fill="#ffdaaa"/><ellipse cx="20" cy="6.5" fill="#3d9ae2" rx="13" ry="3.5"/><path d="m11 39h18a8 8 0 0 1 8 8v14a0 0 0 0 1 0 0h-34a0 0 0 0 1 0 0v-14a8 8 0 0 1 8-8z" fill="#3d9ae2"/><path d="m10 16v5h-2a1 1 0 0 1 -1-1v-3a1 1 0 0 1 1-1z" fill="#ffc477"/><path d="m33 17v3a1 1 0 0 1 -1 1h-2v-5h2a1 1 0 0 1 1 1z" fill="#ffc477"/><path d="m20 33a9.908 9.908 0 0 1 -3-.46v1a10.013 10.013 0 0 0 6 0v-1a9.908 9.908 0 0 1 -3 .46z" fill="#ffb655"/><path d="m30 13.5v1c0 1.38-4.48 2.5-10 2.5s-10-1.12-10-2.5v-1c0 1.38 4.48 2.5 10 2.5s10-1.12 10-2.5z" fill="#1e81ce"/><path d="m30 13v.5c0 1.38-4.48 2.5-10 2.5s-10-1.12-10-2.5v-.5z" fill="#3d9ae2"/><path d="m10 8h20v5h-20z" fill="#00e7f0"/><path d="m20 39-3 6-3-6z" fill="#aafff5"/><path d="m26 39-3 6-3-6z" fill="#aafff5"/><path d="m11.08 39 7.92 22h-4l-7.61-21.14a7.941 7.941 0 0 1 3.61-.86z" fill="#ddfffb"/><path d="m27 43h34v18h-34z" fill="#ffda44"/><path d="m61 43v1l-16.95 10-17.05-10v-1z" fill="#ff9811"/><path d="m16 20h2v2h-2z" fill="#3e3d42"/><path d="m22 20h2v2h-2z" fill="#3e3d42"/><path d="m18 6h4v2h-4z" fill="#e0e0e2"/></g></svg>